<svg width="100" height="100" viewBox="0 0 100 100" fill="none" xmlns="http://www.w3.org/2000/svg">
<path d="M87.4998 66.6666H70.8332C68.532 66.6666 66.6665 68.5321 66.6665 70.8333V87.5C66.6665 89.8011 68.532 91.6666 70.8332 91.6666H87.4998C89.801 91.6666 91.6665 89.8011 91.6665 87.5V70.8333C91.6665 68.5321 89.801 66.6666 87.4998 66.6666Z" stroke="white" stroke-width="4" stroke-linecap="round" stroke-linejoin="round"/>
<path d="M29.1666 66.6666H12.4999C10.1987 66.6666 8.33325 68.5321 8.33325 70.8333V87.5C8.33325 89.8011 10.1987 91.6666 12.4999 91.6666H29.1666C31.4678 91.6666 33.3333 89.8011 33.3333 87.5V70.8333C33.3333 68.5321 31.4678 66.6666 29.1666 66.6666Z" stroke="white" stroke-width="4" stroke-linecap="round" stroke-linejoin="round"/>
<path d="M58.3333 8.33331H41.6667C39.3655 8.33331 37.5 10.1988 37.5 12.5V29.1666C37.5 31.4678 39.3655 33.3333 41.6667 33.3333H58.3333C60.6345 33.3333 62.5 31.4678 62.5 29.1666V12.5C62.5 10.1988 60.6345 8.33331 58.3333 8.33331Z" stroke="white" stroke-width="4" stroke-linecap="round" stroke-linejoin="round"/>
<path d="M20.8333 66.6666V54.1666C20.8333 53.0616 21.2722 52.0018 22.0536 51.2204C22.835 50.439 23.8948 50 24.9999 50H74.9999C76.105 50 77.1648 50.439 77.9462 51.2204C78.7276 52.0018 79.1666 53.0616 79.1666 54.1666V66.6666M49.9999 50V33.3333" stroke="white" stroke-width="4" stroke-linecap="round" stroke-linejoin="round"/>
</svg>
