<svg width="100" height="100" viewBox="0 0 100 100" fill="none" xmlns="http://www.w3.org/2000/svg">
<path d="M12.4999 79.1667C12.4999 81.3768 13.3779 83.4964 14.9407 85.0592C16.5035 86.622 18.6231 87.5 20.8333 87.5H48.9999C47.0416 85.2917 45.8333 82.375 45.8333 79.1667H12.4999ZM58.3333 87.5C60.5434 87.5 62.663 86.622 64.2258 85.0592C65.7886 83.4964 66.6666 81.3768 66.6666 79.1667V25C66.6666 21.7917 67.8749 18.875 69.8333 16.6667H33.3333C31.1231 16.6667 29.0035 17.5446 27.4407 19.1074C25.8779 20.6702 24.9999 22.7899 24.9999 25V75H49.9999V79.1667C49.9999 81.3768 50.8779 83.4964 52.4407 85.0592C54.0035 86.622 56.1231 87.5 58.3333 87.5ZM20.8333 25C20.8333 21.6848 22.1502 18.5054 24.4944 16.1612C26.8386 13.817 30.018 12.5 33.3333 12.5H79.1666C82.4818 12.5 85.6612 13.817 88.0054 16.1612C90.3496 18.5054 91.6666 21.6848 91.6666 25V33.3333H70.8332V79.1667C70.8332 82.4819 69.5163 85.6613 67.1721 88.0055C64.8279 90.3497 61.6485 91.6667 58.3333 91.6667H20.8333C17.518 91.6667 14.3386 90.3497 11.9944 88.0055C9.65021 85.6613 8.33325 82.4819 8.33325 79.1667V75H20.8333V25ZM87.4999 29.1667V25C87.4999 22.7899 86.6219 20.6702 85.0591 19.1074C83.4963 17.5446 81.3767 16.6667 79.1666 16.6667C76.9564 16.6667 74.8368 17.5446 73.274 19.1074C71.7112 20.6702 70.8332 22.7899 70.8332 25V29.1667H87.4999Z" fill="white"/>
</svg>
